<mxfile host="app.diagrams.net" modified="2023-03-07T16:52:41.213Z" agent="5.0 (Windows NT 10.0; Win64; x64) AppleWebKit/537.36 (KHTML, like Gecko) Chrome/110.0.0.0 Safari/537.36" etag="fZaUin5-3MVFCvED4-NJ" version="21.0.2" type="github">
  <diagram id="R2lEEEUBdFMjLlhIrx00" name="Page-1">
    <mxGraphModel dx="1650" dy="786" grid="1" gridSize="10" guides="1" tooltips="1" connect="1" arrows="1" fold="1" page="1" pageScale="1" pageWidth="850" pageHeight="1100" math="0" shadow="0" extFonts="Permanent Marker^https://fonts.googleapis.com/css?family=Permanent+Marker">
      <root>
        <mxCell id="0" />
        <mxCell id="1" parent="0" />
        <mxCell id="sXddx6uAqS-T-0Sv74fl-3" value="Książka&amp;nbsp;" style="rounded=0;whiteSpace=wrap;html=1;" vertex="1" parent="1">
          <mxGeometry x="-840" y="40" width="250" height="40" as="geometry" />
        </mxCell>
        <mxCell id="sXddx6uAqS-T-0Sv74fl-4" value="PK" style="rounded=0;whiteSpace=wrap;html=1;" vertex="1" parent="1">
          <mxGeometry x="-840" y="80" width="40" height="40" as="geometry" />
        </mxCell>
        <mxCell id="sXddx6uAqS-T-0Sv74fl-5" value="Id Int NOT NULL" style="rounded=0;whiteSpace=wrap;html=1;" vertex="1" parent="1">
          <mxGeometry x="-800" y="80" width="210" height="40" as="geometry" />
        </mxCell>
        <mxCell id="sXddx6uAqS-T-0Sv74fl-6" value="" style="rounded=0;whiteSpace=wrap;html=1;" vertex="1" parent="1">
          <mxGeometry x="-840" y="120" width="40" height="90" as="geometry" />
        </mxCell>
        <mxCell id="sXddx6uAqS-T-0Sv74fl-7" value="Tytuł varchan(50) NOT NULL&lt;br&gt;&lt;div style=&quot;text-align: justify;&quot;&gt;&lt;span style=&quot;background-color: initial;&quot;&gt;Wydawnictwo varchan(50) NOT NULL&lt;/span&gt;&lt;/div&gt;Data wydania DATETIME NOT NULL&lt;br&gt;Liczba stron INTEGER" style="rounded=0;whiteSpace=wrap;html=1;verticalAlign=middle;" vertex="1" parent="1">
          <mxGeometry x="-800" y="120" width="210" height="90" as="geometry" />
        </mxCell>
        <mxCell id="sXddx6uAqS-T-0Sv74fl-8" value="Imie&amp;nbsp; char(50) NOT NULL&lt;br&gt;&amp;nbsp;nazwisko char(50) NOT NULL&lt;br&gt;Adres varchar(50) NOT NULL&lt;br&gt;Data urodzenia DATETIME NOT NULL" style="whiteSpace=wrap;html=1;aspect=fixed;verticalAlign=middle;" vertex="1" parent="1">
          <mxGeometry x="-505" y="100" width="195" height="195" as="geometry" />
        </mxCell>
        <mxCell id="sXddx6uAqS-T-0Sv74fl-9" value="" style="rounded=0;whiteSpace=wrap;html=1;" vertex="1" parent="1">
          <mxGeometry x="-545" y="40" width="40" height="250" as="geometry" />
        </mxCell>
        <mxCell id="sXddx6uAqS-T-0Sv74fl-10" value="PK" style="rounded=0;whiteSpace=wrap;html=1;" vertex="1" parent="1">
          <mxGeometry x="-545" y="80" width="40" height="40" as="geometry" />
        </mxCell>
        <mxCell id="sXddx6uAqS-T-0Sv74fl-11" value="Autor" style="rounded=0;whiteSpace=wrap;html=1;" vertex="1" parent="1">
          <mxGeometry x="-540" y="40" width="230" height="40" as="geometry" />
        </mxCell>
        <mxCell id="sXddx6uAqS-T-0Sv74fl-13" value="Id int NOT NULL" style="rounded=0;whiteSpace=wrap;html=1;" vertex="1" parent="1">
          <mxGeometry x="-505" y="80" width="195" height="40" as="geometry" />
        </mxCell>
        <mxCell id="sXddx6uAqS-T-0Sv74fl-14" value="Wydawnictwo" style="rounded=0;whiteSpace=wrap;html=1;" vertex="1" parent="1">
          <mxGeometry x="-840" y="280" width="240" height="40" as="geometry" />
        </mxCell>
        <mxCell id="sXddx6uAqS-T-0Sv74fl-15" value="Id int NOT NULL" style="rounded=0;whiteSpace=wrap;html=1;" vertex="1" parent="1">
          <mxGeometry x="-840" y="320" width="240" height="40" as="geometry" />
        </mxCell>
        <mxCell id="sXddx6uAqS-T-0Sv74fl-16" value="PK" style="whiteSpace=wrap;html=1;aspect=fixed;" vertex="1" parent="1">
          <mxGeometry x="-840" y="320" width="40" height="40" as="geometry" />
        </mxCell>
        <mxCell id="sXddx6uAqS-T-0Sv74fl-19" value="Nazwa varchar(50) NOT NULL" style="rounded=0;whiteSpace=wrap;html=1;" vertex="1" parent="1">
          <mxGeometry x="-800" y="360" width="200" height="60" as="geometry" />
        </mxCell>
        <mxCell id="sXddx6uAqS-T-0Sv74fl-20" value="" style="rounded=0;whiteSpace=wrap;html=1;" vertex="1" parent="1">
          <mxGeometry x="-840" y="360" width="40" height="60" as="geometry" />
        </mxCell>
      </root>
    </mxGraphModel>
  </diagram>
</mxfile>
